<svg width="1073" height="440" xmlns="http://www.w3.org/2000/svg" xmlns:xlink="http://www.w3.org/1999/xlink" xml:space="preserve" overflow="hidden"><g transform="translate(-939 -1017)"><g><rect x="1011.5" y="1056.5" width="972" height="362" stroke="#FFFFFF" stroke-width="4.58333" stroke-linecap="butt" stroke-linejoin="miter" stroke-miterlimit="8" stroke-opacity="1" fill="#000000" fill-opacity="1"/><rect x="1967.5" y="1039.5" width="37.9998" height="404" stroke="#FFFFFF" stroke-width="4.58333" stroke-linecap="butt" stroke-linejoin="miter" stroke-miterlimit="8" stroke-opacity="1" fill="#000000" fill-opacity="1"/><rect x="973.5" y="1036.5" width="38.0002" height="405" stroke="#FFFFFF" stroke-width="4.58333" stroke-linecap="butt" stroke-linejoin="miter" stroke-miterlimit="8" stroke-opacity="1" fill="#000000" fill-opacity="1"/><rect x="960.5" y="1036.5" width="14.0001" height="405" stroke="#FFFFFF" stroke-width="4.58333" stroke-linecap="butt" stroke-linejoin="miter" stroke-miterlimit="8" stroke-opacity="1" fill="#000000" fill-opacity="1"/><path d="M1060.5 1237C1060.5 1207.45 1152.95 1183.5 1267 1183.5 1381.05 1183.5 1473.5 1207.45 1473.5 1237 1473.5 1266.55 1381.05 1290.5 1267 1290.5 1152.95 1290.5 1060.5 1266.55 1060.5 1237Z" stroke="#FFFFFF" stroke-width="4.58333" stroke-linecap="butt" stroke-linejoin="miter" stroke-miterlimit="8" stroke-opacity="1" fill="#000000" fill-rule="evenodd" fill-opacity="1"/><path d="M1570.5 1233.5C1570.5 1190.42 1662.95 1155.5 1777 1155.5 1891.05 1155.5 1983.5 1190.42 1983.5 1233.5 1983.5 1276.58 1891.05 1311.5 1777 1311.5 1662.95 1311.5 1570.5 1276.58 1570.5 1233.5Z" stroke="#FFFFFF" stroke-width="4.58333" stroke-linecap="butt" stroke-linejoin="miter" stroke-miterlimit="8" stroke-opacity="1" fill="#000000" fill-rule="evenodd" fill-opacity="1"/><path d="M1342.5 1232C1342.5 1172.63 1434.95 1124.5 1549 1124.5 1663.05 1124.5 1755.5 1172.63 1755.5 1232 1755.5 1291.37 1663.05 1339.5 1549 1339.5 1434.95 1339.5 1342.5 1291.37 1342.5 1232Z" stroke="#FFFFFF" stroke-width="4.58333" stroke-linecap="butt" stroke-linejoin="miter" stroke-miterlimit="8" stroke-opacity="1" fill="#000000" fill-rule="evenodd" fill-opacity="1"/><path d="M1429.8 1078.5C1445.07 1090.5 1460.33 1102.5 1399.78 1111.5 1339.23 1120.5 1202.86 1126.5 1066.5 1132.5" stroke="#FFFFFF" stroke-width="6.875" stroke-linecap="butt" stroke-linejoin="miter" stroke-miterlimit="8" stroke-opacity="1" fill="#000000" fill-rule="evenodd" fill-opacity="1"/><path d="M363.304 0C378.567 12.2222 393.829 24.4445 333.279 33.6111 272.728 42.7778 136.364 48.8888 0 55" stroke="#FFFFFF" stroke-width="6.875" stroke-linecap="butt" stroke-linejoin="miter" stroke-miterlimit="8" stroke-opacity="1" fill="#000000" fill-rule="evenodd" fill-opacity="1" transform="matrix(1 0 0 -1 1048.5 1389.5)"/><path d="M1327.5 1153.5C1376.38 1137.07 1425.26 1120.63 1477.9 1114.06 1530.54 1107.49 1606.25 1108.5 1643.35 1114.06 1680.45 1119.62 1690.47 1133.53 1700.5 1147.43" stroke="#FFFFFF" stroke-width="4.58333" stroke-linecap="butt" stroke-linejoin="miter" stroke-miterlimit="8" stroke-opacity="1" fill="#000000" fill-rule="evenodd" fill-opacity="1"/><path d="M0 44C48.881 27.5661 97.7622 11.1322 150.403 4.55862 203.045-2.01492 278.747-1.00359 315.847 4.55862 352.947 10.1208 362.973 24.0263 373 37.932" stroke="#FFFFFF" stroke-width="4.58333" stroke-linecap="butt" stroke-linejoin="miter" stroke-miterlimit="8" stroke-opacity="1" fill="#000000" fill-rule="evenodd" fill-opacity="1" transform="matrix(1 0 0 -1 1342.5 1366.5)"/><rect x="945.5" y="1023.5" width="81.9998" height="9.00031" stroke="#FFFFFF" stroke-width="4.58333" stroke-linecap="butt" stroke-linejoin="miter" stroke-miterlimit="8" stroke-opacity="1" fill="#000000" fill-opacity="1"/><rect x="951.5" y="1443.5" width="82.0001" height="8.99988" stroke="#FFFFFF" stroke-width="4.58333" stroke-linecap="butt" stroke-linejoin="miter" stroke-miterlimit="8" stroke-opacity="1" fill="#000000" fill-opacity="1"/><path d="M1949.5 1102.49C1909 1116.24 1868.5 1129.99 1829.5 1129.49 1790.5 1128.99 1741 1107.99 1715.5 1099.49 1690 1091 1683.25 1084.75 1676.5 1078.5" stroke="#FFFFFF" stroke-width="4.58333" stroke-linecap="butt" stroke-linejoin="miter" stroke-miterlimit="8" stroke-opacity="1" fill="#000000" fill-rule="evenodd" fill-opacity="1"/><path d="M273 23.994C232.5 37.7404 192 51.4868 153 50.987 114 50.4872 64.4999 29.4925 38.9999 20.9947 13.4999 12.4969 6.74985 6.24834 0 0" stroke="#FFFFFF" stroke-width="4.58333" stroke-linecap="butt" stroke-linejoin="miter" stroke-miterlimit="8" stroke-opacity="1" fill="#000000" fill-rule="evenodd" fill-opacity="1" transform="matrix(1 0 0 -1 1676.5 1393.5)"/><path d="M1613.5 1110.5C1595.1 1097.5 1576.7 1084.5 1556.04 1077.5 1535.37 1070.5 1512.43 1069.5 1489.5 1068.5" stroke="#FFFFFF" stroke-width="4.58333" stroke-linecap="butt" stroke-linejoin="miter" stroke-miterlimit="8" stroke-opacity="1" fill="#000000" fill-rule="evenodd" fill-opacity="1"/><path d="M124 41.9999C105.602 28.9998 87.2032 15.9998 66.5366 8.99992 45.87 1.99985 22.935 0.999837 0 0" stroke="#FFFFFF" stroke-width="4.58333" stroke-linecap="butt" stroke-linejoin="miter" stroke-miterlimit="8" stroke-opacity="1" fill="#000000" fill-rule="evenodd" fill-opacity="1" transform="matrix(1 0 0 -1 1485.5 1411.5)"/><path d="M1066.5 1232.5C1066.5 1230.29 1135.67 1228.5 1221 1228.5 1306.33 1228.5 1375.5 1230.29 1375.5 1232.5 1375.5 1234.71 1306.33 1236.5 1221 1236.5 1135.67 1236.5 1066.5 1234.71 1066.5 1232.5Z" stroke="#FFFFFF" stroke-width="4.58333" stroke-linecap="butt" stroke-linejoin="miter" stroke-miterlimit="8" stroke-opacity="1" fill="#000000" fill-rule="evenodd" fill-opacity="1"/><path d="M1639.5 1262.5 1348.5 1248 1348.5 1219 1639.5 1204.5Z" stroke="#FFFFFF" stroke-width="4.58333" stroke-linecap="butt" stroke-linejoin="miter" stroke-miterlimit="8" stroke-opacity="1" fill="#000000" fill-rule="evenodd" fill-opacity="1"/><path d="M1777.5 1053C1777.5 1045.54 1783.54 1039.5 1791 1039.5L1861 1039.5C1868.46 1039.5 1874.5 1045.54 1874.5 1053L1874.5 1107C1874.5 1114.46 1868.46 1120.5 1861 1120.5L1791 1120.5C1783.54 1120.5 1777.5 1114.46 1777.5 1107Z" stroke="#FFFFFF" stroke-width="4.58333" stroke-linecap="butt" stroke-linejoin="miter" stroke-miterlimit="8" stroke-opacity="1" fill="#000000" fill-rule="evenodd" fill-opacity="1"/><path d="M1094.5 1363C1094.5 1355.54 1100.54 1349.5 1108 1349.5L1177 1349.5C1184.46 1349.5 1190.5 1355.54 1190.5 1363L1190.5 1417C1190.5 1424.46 1184.46 1430.5 1177 1430.5L1108 1430.5C1100.54 1430.5 1094.5 1424.46 1094.5 1417Z" stroke="#FFFFFF" stroke-width="4.58333" stroke-linecap="butt" stroke-linejoin="miter" stroke-miterlimit="8" stroke-opacity="1" fill="#000000" fill-rule="evenodd" fill-opacity="1"/><path d="M1095.5 1049.17C1095.5 1041.62 1101.62 1035.5 1109.17 1035.5L1177.83 1035.5C1185.38 1035.5 1191.5 1041.62 1191.5 1049.17L1191.5 1103.83C1191.5 1111.38 1185.38 1117.5 1177.83 1117.5L1109.17 1117.5C1101.62 1117.5 1095.5 1111.38 1095.5 1103.83Z" stroke="#FFFFFF" stroke-width="4.58333" stroke-linecap="butt" stroke-linejoin="miter" stroke-miterlimit="8" stroke-opacity="1" fill="#000000" fill-rule="evenodd" fill-opacity="1"/><path d="M1776.5 1366.17C1776.5 1358.62 1782.62 1352.5 1790.17 1352.5L1859.83 1352.5C1867.38 1352.5 1873.5 1358.62 1873.5 1366.17L1873.5 1420.83C1873.5 1428.38 1867.38 1434.5 1859.83 1434.5L1790.17 1434.5C1782.62 1434.5 1776.5 1428.38 1776.5 1420.83Z" stroke="#FFFFFF" stroke-width="4.58333" stroke-linecap="butt" stroke-linejoin="miter" stroke-miterlimit="8" stroke-opacity="1" fill="#000000" fill-rule="evenodd" fill-opacity="1"/></g></g></svg>