<svg width="853" height="440" xmlns="http://www.w3.org/2000/svg" xmlns:xlink="http://www.w3.org/1999/xlink" xml:space="preserve" overflow="hidden"><g transform="translate(-2103 -229)"><g><path d="M2484.5 321.5 2643.5 406.167 2643.5 485.833 2484.5 570.5Z" stroke="#000000" stroke-width="4.58333" stroke-linecap="butt" stroke-linejoin="miter" stroke-miterlimit="8" stroke-opacity="1" fill="#FFFFFF" fill-rule="evenodd" fill-opacity="1"/><rect x="2219.5" y="421.5" width="39.9998" height="29.0002" stroke="#000000" stroke-width="4.58333" stroke-linecap="butt" stroke-linejoin="miter" stroke-miterlimit="8" stroke-opacity="1" fill="#FFFFFF" fill-opacity="1"/><rect x="2259.5" y="319.5" width="214" height="252" stroke="#000000" stroke-width="4.58333" stroke-linecap="butt" stroke-linejoin="miter" stroke-miterlimit="8" stroke-opacity="1" fill="#FFFFFF" fill-opacity="1"/><rect x="2319.5" y="288.5" width="38.9998" height="28.0002" stroke="#000000" stroke-width="4.58333" stroke-linecap="butt" stroke-linejoin="miter" stroke-miterlimit="8" stroke-opacity="1" fill="#FFFFFF" fill-opacity="1"/><rect x="2319.5" y="570.5" width="38.9998" height="27.9998" stroke="#000000" stroke-width="4.58333" stroke-linecap="butt" stroke-linejoin="miter" stroke-miterlimit="8" stroke-opacity="1" fill="#FFFFFF" fill-opacity="1"/><path d="M2259.5 245.167C2259.5 239.276 2264.28 234.5 2270.17 234.5L2410.83 234.5C2416.72 234.5 2421.5 239.276 2421.5 245.167L2421.5 287.833C2421.5 293.724 2416.72 298.5 2410.83 298.5L2270.17 298.5C2264.28 298.5 2259.5 293.724 2259.5 287.833Z" stroke="#000000" stroke-width="4.58333" stroke-linecap="butt" stroke-linejoin="miter" stroke-miterlimit="8" stroke-opacity="1" fill="#FFFFFF" fill-rule="evenodd" fill-opacity="1"/><path d="M2259.5 601.167C2259.5 595.276 2264.28 590.5 2270.17 590.5L2410.83 590.5C2416.72 590.5 2421.5 595.276 2421.5 601.167L2421.5 643.833C2421.5 649.724 2416.72 654.5 2410.83 654.5L2270.17 654.5C2264.28 654.5 2259.5 649.724 2259.5 643.833Z" stroke="#000000" stroke-width="4.58333" stroke-linecap="butt" stroke-linejoin="miter" stroke-miterlimit="8" stroke-opacity="1" fill="#FFFFFF" fill-rule="evenodd" fill-opacity="1"/><path d="M2381.5 423.167C2381.5 417.276 2386.28 412.5 2392.17 412.5L2532.83 412.5C2538.72 412.5 2543.5 417.276 2543.5 423.167L2543.5 465.833C2543.5 471.724 2538.72 476.5 2532.83 476.5L2392.17 476.5C2386.28 476.5 2381.5 471.724 2381.5 465.833Z" stroke="#000000" stroke-width="4.58333" stroke-linecap="butt" stroke-linejoin="miter" stroke-miterlimit="8" stroke-opacity="1" fill="#FFFFFF" fill-rule="evenodd" fill-opacity="1"/><rect x="2750.5" y="287.5" width="21.0002" height="119" stroke="#000000" stroke-width="4.58333" stroke-linecap="butt" stroke-linejoin="miter" stroke-miterlimit="8" stroke-opacity="1" fill="#FFFFFF" fill-opacity="1"/><path d="M2686.5 245.167C2686.5 239.276 2691.28 234.5 2697.17 234.5L2837.83 234.5C2843.72 234.5 2848.5 239.276 2848.5 245.167L2848.5 287.833C2848.5 293.724 2843.72 298.5 2837.83 298.5L2697.17 298.5C2691.28 298.5 2686.5 293.724 2686.5 287.833Z" stroke="#000000" stroke-width="4.58333" stroke-linecap="butt" stroke-linejoin="miter" stroke-miterlimit="8" stroke-opacity="1" fill="#FFFFFF" fill-rule="evenodd" fill-opacity="1"/><rect x="2889.5" y="306.5" width="64" height="89.9997" stroke="#000000" stroke-width="4.58333" stroke-linecap="butt" stroke-linejoin="miter" stroke-miterlimit="8" stroke-opacity="1" fill="#FFFFFF" fill-opacity="1"/><rect x="2654.5" y="404.5" width="299" height="82.9998" stroke="#000000" stroke-width="4.58333" stroke-linecap="butt" stroke-linejoin="miter" stroke-miterlimit="8" stroke-opacity="1" fill="#FFFFFF" fill-opacity="1"/><rect x="2889.5" y="492.5" width="64" height="90.0001" stroke="#000000" stroke-width="4.58333" stroke-linecap="butt" stroke-linejoin="miter" stroke-miterlimit="8" stroke-opacity="1" fill="#FFFFFF" fill-opacity="1"/><rect x="2867.5" y="286.5" width="86" height="28.0002" stroke="#000000" stroke-width="4.58333" stroke-linecap="butt" stroke-linejoin="miter" stroke-miterlimit="8" stroke-opacity="1" fill="#FFFFFF" fill-opacity="1"/><rect x="2867.5" y="579.5" width="86" height="28.9999" stroke="#000000" stroke-width="4.58333" stroke-linecap="butt" stroke-linejoin="miter" stroke-miterlimit="8" stroke-opacity="1" fill="#FFFFFF" fill-opacity="1"/><path d="M2692.69 491.74 2744.02 543.255 2742.17 568.828 2663.24 489.608Z" stroke="#000000" stroke-width="4.58333" stroke-linecap="butt" stroke-linejoin="miter" stroke-miterlimit="8" stroke-opacity="1" fill="#FFFFFF" fill-rule="evenodd" fill-opacity="1"/><path d="M0 54.9121 47.6766 0 73.3171 0 0 84.4438Z" stroke="#000000" stroke-width="4.58333" stroke-linecap="butt" stroke-linejoin="miter" stroke-miterlimit="8" stroke-opacity="1" fill="#FFFFFF" fill-rule="evenodd" fill-opacity="1" transform="matrix(-0.0721662 -0.997393 -0.997393 0.0721662 2747.46 399.895)"/><rect x="2750.5" y="490.5" width="21.0002" height="118" stroke="#000000" stroke-width="4.58333" stroke-linecap="butt" stroke-linejoin="miter" stroke-miterlimit="8" stroke-opacity="1" fill="#FFFFFF" fill-opacity="1"/><path d="M2847.5 651.833C2847.5 657.724 2842.72 662.5 2836.83 662.5L2696.17 662.5C2690.28 662.5 2685.5 657.724 2685.5 651.833L2685.5 609.167C2685.5 603.276 2690.28 598.5 2696.17 598.5L2836.83 598.5C2842.72 598.5 2847.5 603.276 2847.5 609.167Z" stroke="#000000" stroke-width="4.58333" stroke-linecap="butt" stroke-linejoin="miter" stroke-miterlimit="8" stroke-opacity="1" fill="#FFFFFF" fill-rule="evenodd" fill-opacity="1"/><path d="M2594.5 440.167C2594.5 437.589 2596.59 435.5 2599.17 435.5L2751.83 435.5C2754.41 435.5 2756.5 437.589 2756.5 440.167L2756.5 458.833C2756.5 461.41 2754.41 463.5 2751.83 463.5L2599.17 463.5C2596.59 463.5 2594.5 461.41 2594.5 458.833Z" stroke="#000000" stroke-width="4.58333" stroke-linecap="butt" stroke-linejoin="miter" stroke-miterlimit="8" stroke-opacity="1" fill="#FFFFFF" fill-rule="evenodd" fill-opacity="1"/><rect x="2109.5" y="298.5" width="112" height="277" stroke="#000000" stroke-width="4.58333" stroke-linecap="butt" stroke-linejoin="miter" stroke-miterlimit="8" stroke-opacity="1" fill="#FFFFFF" fill-opacity="1"/></g></g></svg>